<svg width="86" height="85" viewBox="0 0 86 85" fill="none" xmlns="http://www.w3.org/2000/svg">
<path d="M43 32.1196L65.2222 24.4273M43 32.1196L20.7778 24.4273M43 32.1196V64.4273M65.2222 2.20508H74.1111C79.0204 2.20508 83 6.18477 83 11.094V19.9829M65.2222 82.2051H74.1111C79.0204 82.2051 83 78.2255 83 73.3162V64.4273M20.7778 2.20508H11.8889C6.97969 2.20508 3 6.18477 3 11.094V19.9829M20.7778 82.2051H11.8889C6.97969 82.2051 3 78.2255 3 73.3162V64.4273M45.8827 16.5268L63.6604 22.6221C67.2533 23.8539 69.6667 27.2324 69.6667 31.0305V50.9713C69.6667 54.45 67.6373 57.6091 64.4733 59.0553L46.6956 67.1824C44.3489 68.2553 41.6511 68.2553 39.3044 67.1824L21.5266 59.0553C18.3627 57.6091 16.3333 54.45 16.3333 50.9713V31.0305C16.3333 27.2324 18.7465 23.8539 22.3393 22.6221L40.1173 16.5268C41.9858 15.8862 44.0142 15.8862 45.8827 16.5268Z" stroke="white" stroke-width="4.26667" stroke-linecap="round"/>
</svg>
