<svg width="81" height="81" viewBox="0 0 81 81" fill="none" xmlns="http://www.w3.org/2000/svg">
<path d="M40.7017 70.2051H39.8083C36.852 70.2051 34.4557 67.8087 34.4557 64.8524C34.4557 63.1831 33.6766 61.6091 32.3491 60.5964L28.8922 57.9601C26.9334 56.4661 24.2751 56.2761 22.1237 57.4761L22.006 57.5417C19.149 59.1351 15.543 58.1694 13.8648 55.3614C12.1141 52.4321 13.1309 48.6351 16.1114 46.9727L16.2646 46.8874C18.2345 45.7887 19.4553 43.7097 19.4553 41.4544V38.9574C19.4553 36.7021 18.2345 34.6231 16.2646 33.5244L16.1114 33.4389C13.1309 31.7766 12.1141 27.9798 13.8648 25.0504C15.543 22.2425 19.149 21.2767 22.006 22.8701L22.4589 23.1227C24.4527 24.2348 26.8803 24.2347 28.8742 23.1226L31.2877 21.7764C33.2435 20.6855 34.4557 18.6215 34.4557 16.382C34.4557 12.9706 37.2553 10.2051 40.6667 10.2051C44.078 10.2051 46.8777 12.9705 46.8777 16.3819C46.8777 18.6213 48.0897 20.6854 50.0457 21.7763L52.459 23.1225C54.4527 24.2346 56.8803 24.2346 58.874 23.1226L59.327 22.8701C62.1837 21.2767 65.7897 22.2425 67.468 25.0504C69.2187 27.9798 68.202 31.7766 65.2213 33.4389L65.068 33.5244C63.0983 34.6231 61.8773 36.7021 61.8773 38.9574V41.4544C61.8773 43.7097 63.0983 45.7887 65.068 46.8874L65.2213 46.9731C68.202 48.6351 69.2187 52.4321 67.468 55.3614C65.7897 58.1694 62.1837 59.1351 59.327 57.5417L58.874 57.2891C56.8803 56.1771 54.453 56.1771 52.459 57.2891L50.0457 58.6351C48.09 59.7257 46.8777 61.7897 46.8777 64.0291C46.8777 67.4401 44.1127 70.2051 40.7017 70.2051Z" stroke="white" stroke-width="4.26667" stroke-linecap="round"/>
<path d="M50.6672 40.2051C50.6672 45.7277 46.1898 50.2051 40.6668 50.2051C35.1442 50.2051 30.667 45.7277 30.667 40.2051C30.667 34.6821 35.1442 30.2051 40.6668 30.2051C46.1898 30.2051 50.6672 34.6821 50.6672 40.2051Z" stroke="white" stroke-width="4.26667" stroke-linecap="round"/>
</svg>
