<svg width="100" height="101" viewBox="0 0 100 101" fill="none" xmlns="http://www.w3.org/2000/svg">
<g clip-path="url(#clip0_1_2715)">
<path d="M39.1059 39.8848C50.7578 39.8848 60.2038 49.3309 60.2038 60.9832C60.2038 72.6356 50.7578 82.0817 39.1059 82.0817C27.4537 82.0817 18.0078 72.6356 18.0078 60.9832C18.0078 49.3309 27.4537 39.8848 39.1059 39.8848Z" stroke="#0F86D9" stroke-width="4.21965" stroke-linecap="round"/>
<path d="M61.9096 39.8848C73.5617 39.8848 83.0076 49.3309 83.0076 60.9832C83.0076 72.6356 73.5617 82.0817 61.9096 82.0817C50.2575 82.0817 40.8115 72.6356 40.8115 60.9832C40.8115 49.3309 50.2575 39.8848 61.9096 39.8848Z" stroke="#0F86D9" stroke-width="4.21965" stroke-linecap="round"/>
<path d="M50.5057 18.7861C62.1578 18.7861 71.6038 28.2322 71.6038 39.8846C71.6038 51.5369 62.1578 60.9831 50.5057 60.9831C38.8536 60.9831 29.4077 51.5369 29.4077 39.8846C29.4077 28.2322 38.8536 18.7861 50.5057 18.7861Z" stroke="#0F86D9" stroke-width="4.21965" stroke-linecap="round"/>
</g>
<defs>
<clipPath id="clip0_1_2715">
<rect width="100" height="100" fill="white" transform="translate(0 0.28418)"/>
</clipPath>
</defs>
</svg>
