<svg width="81" height="81" viewBox="0 0 81 81" fill="none" xmlns="http://www.w3.org/2000/svg">
<path d="M40.3335 13.5391H27.0002C23.3183 13.5391 20.3335 16.5238 20.3335 20.2057V60.2057C20.3335 63.8877 23.3183 66.8724 27.0002 66.8724H43.6668M40.3335 13.5391H40.9055C42.6735 13.5391 44.3692 14.2414 45.6195 15.4917L58.3808 28.2531C59.6312 29.5034 60.3335 31.199 60.3335 32.9672V33.5391M40.3335 13.5391V26.8724C40.3335 30.5543 43.3182 33.5391 47.0002 33.5391H60.3335M60.3335 33.5391V40.2057M60.3335 70.2057C61.2172 70.2057 70.2805 66.5537 70.3335 54.0894C70.3335 54.0137 70.2928 53.9427 70.2252 53.8994C66.0582 51.3237 60.7855 48.5391 60.3335 48.5391C59.8815 48.5391 54.6088 51.3237 50.4418 53.8994C50.3742 53.9427 50.3335 54.0137 50.3335 54.0894C50.3862 66.5541 59.4502 70.2057 60.3335 70.2057Z" stroke="white" stroke-width="4.26667" stroke-linecap="round"/>
</svg>
