<svg width="100" height="101" viewBox="0 0 100 101" fill="none" xmlns="http://www.w3.org/2000/svg">
<path d="M48.1665 35.5503V66.4247M25.0107 66.4247H71.3223M25.0107 66.4247L30.7885 80.8693C31.9607 83.7996 34.7989 85.7212 37.955 85.7212H58.3778C61.5339 85.7212 64.3724 83.7996 65.5445 80.8693L71.3223 66.4247M25.0107 66.4247H75.1816H71.3223M25.0107 66.4247H21.1514M65.406 49.8988C71.1166 46.6018 72.7193 40.842 73.1682 37.7353C73.3584 36.4156 72.6472 35.1834 71.4091 34.6886C68.4942 33.5239 62.7045 32.032 56.9942 35.329C51.2836 38.626 49.6809 44.3858 49.232 47.4925C49.0414 48.8124 49.7526 50.0443 50.9911 50.539C53.906 51.7038 59.6954 53.1958 65.406 49.8988ZM32.6646 31.7557C28.1239 27.215 28.0459 21.3992 28.4026 18.3364C28.5568 17.0119 29.5634 16.0054 30.8878 15.8511C33.9507 15.4944 39.7664 15.5724 44.3072 20.1131C48.848 24.6538 48.926 30.4696 48.569 33.5324C48.415 34.8569 47.4085 35.8634 46.084 36.0177C43.0213 36.3744 37.2053 36.2964 32.6646 31.7557Z" stroke="#0F86D9" stroke-width="4.63116" stroke-linecap="round"/>
</svg>
