<svg width="32" height="33" viewBox="0 0 32 33" fill="none" xmlns="http://www.w3.org/2000/svg">
<path d="M26.6665 5.53845H5.33317C3.8625 5.53845 2.6665 6.73445 2.6665 8.20512V24.2051C2.6665 25.6758 3.8625 26.8718 5.33317 26.8718H26.6665C28.1372 26.8718 29.3332 25.6758 29.3332 24.2051V8.20512C29.3332 6.73445 28.1372 5.53845 26.6665 5.53845ZM26.6665 8.20512V8.88645L15.9998 17.1838L5.33317 8.88779V8.20512H26.6665ZM5.33317 24.2051V12.2638L15.1812 19.9238C15.4146 20.1072 15.7029 20.2069 15.9998 20.2069C16.2967 20.2069 16.585 20.1072 16.8185 19.9238L26.6665 12.2638L26.6692 24.2051H5.33317Z" fill="#0F86D9"/>
</svg>
