<svg width="22" height="28" viewBox="0 0 22 28" fill="none" xmlns="http://www.w3.org/2000/svg">
<path d="M11.0002 16.8718C13.9416 16.8718 16.3336 14.4798 16.3336 11.5384C16.3336 8.5971 13.9416 6.2051 11.0002 6.2051C8.05891 6.2051 5.66691 8.5971 5.66691 11.5384C5.66691 14.4798 8.05891 16.8718 11.0002 16.8718ZM11.0002 8.87177C12.4709 8.87177 13.6669 10.0678 13.6669 11.5384C13.6669 13.0091 12.4709 14.2051 11.0002 14.2051C9.52958 14.2051 8.33358 13.0091 8.33358 11.5384C8.33358 10.0678 9.52958 8.87177 11.0002 8.87177ZM10.2269 27.2904C10.4526 27.4516 10.723 27.5382 11.0003 27.5382C11.2776 27.5382 11.5479 27.4516 11.7736 27.2904C12.1789 27.0038 21.7056 20.1251 21.6669 11.5384C21.6669 5.6571 16.8816 0.871765 11.0003 0.871765C5.11895 0.871765 0.333613 5.6571 0.333613 11.5318C0.294947 20.1251 9.82161 27.0038 10.2269 27.2904ZM11.0003 3.53843C15.4123 3.53843 19.0003 7.12643 19.0003 11.5451C19.0283 17.4624 13.1496 22.7758 11.0003 24.5184C8.85228 22.7744 2.97228 17.4598 3.00028 11.5384C3.00028 7.12643 6.58828 3.53843 11.0003 3.53843Z" fill="#0F86D9"/>
<path d="M11.0002 16.8718C13.9416 16.8718 16.3336 14.4798 16.3336 11.5384C16.3336 8.5971 13.9416 6.2051 11.0002 6.2051C8.05891 6.2051 5.66691 8.5971 5.66691 11.5384C5.66691 14.4798 8.05891 16.8718 11.0002 16.8718ZM11.0002 8.87177C12.4709 8.87177 13.6669 10.0678 13.6669 11.5384C13.6669 13.0091 12.4709 14.2051 11.0002 14.2051C9.52958 14.2051 8.33358 13.0091 8.33358 11.5384C8.33358 10.0678 9.52958 8.87177 11.0002 8.87177ZM10.2269 27.2904C10.4526 27.4516 10.723 27.5382 11.0003 27.5382C11.2776 27.5382 11.5479 27.4516 11.7736 27.2904C12.1789 27.0038 21.7056 20.1251 21.6669 11.5384C21.6669 5.6571 16.8816 0.871765 11.0003 0.871765C5.11895 0.871765 0.333613 5.6571 0.333613 11.5318C0.294947 20.1251 9.82161 27.0038 10.2269 27.2904ZM11.0003 3.53843C15.4123 3.53843 19.0003 7.12643 19.0003 11.5451C19.0283 17.4624 13.1496 22.7758 11.0003 24.5184C8.85228 22.7744 2.97228 17.4598 3.00028 11.5384C3.00028 7.12643 6.58828 3.53843 11.0003 3.53843Z" fill="#0F86D9"/>
</svg>
