<svg width="24" height="25" viewBox="0 0 24 25" fill="none" xmlns="http://www.w3.org/2000/svg">
<path fill-rule="evenodd" clip-rule="evenodd" d="M4.5 3.44775C3.67157 3.44775 3 4.11932 3 4.94775V19.9478C3 20.7762 3.67157 21.4478 4.5 21.4478H19.5C20.3284 21.4478 21 20.7762 21 19.9478V4.94775C21 4.11932 20.3284 3.44775 19.5 3.44775H4.5ZM8.52076 7.45047C8.52639 8.40672 7.81061 8.99594 6.96123 8.99172C6.16107 8.9875 5.46357 8.35047 5.46779 7.45188C5.47201 6.60672 6.13998 5.9275 7.00764 5.94719C7.88795 5.96688 8.52639 6.61235 8.52076 7.45047ZM12.2797 10.2095H9.75971H9.7583V18.7694H12.4217V18.5697C12.4217 18.1898 12.4214 17.8098 12.4211 17.4297C12.4203 16.4159 12.4194 15.401 12.4246 14.3875C12.426 14.1414 12.4372 13.8855 12.5005 13.6506C12.7381 12.7731 13.5271 12.2064 14.4074 12.3457C14.9727 12.4342 15.3467 12.7619 15.5042 13.2949C15.6013 13.6281 15.6449 13.9867 15.6491 14.3341C15.6605 15.3817 15.6589 16.4293 15.6573 17.477C15.6567 17.8468 15.6561 18.2168 15.6561 18.5866V18.768H18.328V18.5627C18.328 18.1107 18.3278 17.6588 18.3275 17.2069C18.327 16.0774 18.3264 14.9479 18.3294 13.818C18.3308 13.3075 18.276 12.8041 18.1508 12.3105C17.9638 11.5764 17.5771 10.9689 16.9485 10.5302C16.5027 10.2179 16.0133 10.0169 15.4663 9.99435C15.404 9.99176 15.3412 9.98837 15.2781 9.98496C14.9984 9.96984 14.7141 9.95448 14.4467 10.0084C13.6817 10.1617 13.0096 10.5119 12.5019 11.1292C12.4429 11.2 12.3852 11.2719 12.2991 11.3792L12.2797 11.4035V10.2095ZM5.68164 18.7722H8.33242V10.2151H5.68164V18.7722Z" fill="white"/>
</svg>
