<svg width="24" height="25" viewBox="0 0 24 25" fill="none" xmlns="http://www.w3.org/2000/svg">
<path d="M21.5928 7.40809C21.4789 6.98549 21.2563 6.60009 20.9472 6.29025C20.6381 5.98042 20.2532 5.75695 19.8308 5.64209C18.2648 5.21209 11.9998 5.20509 11.9998 5.20509C11.9998 5.20509 5.73584 5.19809 4.16884 5.60909C3.74677 5.72923 3.36266 5.95586 3.05341 6.26722C2.74415 6.57858 2.52013 6.96421 2.40284 7.38709C1.98984 8.95309 1.98584 12.2011 1.98584 12.2011C1.98584 12.2011 1.98184 15.4651 2.39184 17.0151C2.62184 17.8721 3.29684 18.5491 4.15484 18.7801C5.73684 19.2101 11.9848 19.2171 11.9848 19.2171C11.9848 19.2171 18.2498 19.2241 19.8158 18.8141C20.2383 18.6994 20.6236 18.4765 20.9335 18.1673C21.2434 17.8581 21.4672 17.4733 21.5828 17.0511C21.9968 15.4861 21.9998 12.2391 21.9998 12.2391C21.9998 12.2391 22.0198 8.97409 21.5928 7.40809ZM9.99584 15.2101L10.0008 9.21009L15.2078 12.2151L9.99584 15.2101Z" fill="white"/>
</svg>
