<svg width="80" height="81" viewBox="0 0 80 81" fill="none" xmlns="http://www.w3.org/2000/svg">
<path d="M63.8854 19.1643L42.2187 11.5173C40.783 11.0105 39.217 11.0105 37.7814 11.5173L16.1146 19.1643C13.4492 20.1051 11.6667 22.6244 11.6667 25.4509V51.5035C11.6667 54.0858 13.1581 56.4362 15.4947 57.5355L37.1614 67.7318C38.9594 68.5778 41.0407 68.5778 42.8387 67.7315L64.5054 57.5355C66.842 56.4362 68.3334 54.0858 68.3334 51.5035V25.4509C68.3334 22.6244 66.551 20.1051 63.8854 19.1643Z" stroke="#0F86D9" stroke-width="4" stroke-linecap="round"/>
<path d="M40 34.0677L58.75 24.4844M40 34.0677L21.25 24.4844M40 34.0677V59.0677" stroke="#0F86D9" stroke-width="4" stroke-linecap="round"/>
</svg>
