<svg width="80" height="81" viewBox="0 0 80 81" fill="none" xmlns="http://www.w3.org/2000/svg">
<path d="M38.3901 41.7917L35.1574 30.4776C34.2398 27.2652 36.6518 24.0674 39.9928 24.0674C43.3334 24.0674 45.7458 27.2652 44.8278 30.4776L41.5951 41.7917C41.1348 43.4037 38.8508 43.4037 38.3901 41.7917Z" stroke="white" stroke-width="4" stroke-linecap="round"/>
<path d="M43.3229 54.0677C43.3229 55.9087 41.8306 57.401 39.9896 57.401C38.1486 57.401 36.6562 55.9087 36.6562 54.0677C36.6562 52.2267 38.1486 50.7344 39.9896 50.7344C41.8306 50.7344 43.3229 52.2267 43.3229 54.0677Z" stroke="white" stroke-width="4" stroke-linecap="round"/>
<path d="M11.2147 45.7346C9.42842 42.6406 9.42842 38.8286 11.2147 35.7346L21.2746 18.3105C23.0609 15.2165 26.3622 13.3105 29.9348 13.3105H50.0544C53.6271 13.3105 56.9284 15.2165 58.7148 18.3105L68.7744 35.7346C70.5608 38.8286 70.5608 42.6406 68.7744 45.7346L58.7148 63.1586C56.9284 66.253 53.6271 68.1586 50.0544 68.1586H29.9348C26.3622 68.1586 23.0609 66.253 21.2746 63.1586L11.2147 45.7346Z" stroke="white" stroke-width="4" stroke-linecap="round"/>
</svg>
