<svg width="80" height="81" viewBox="0 0 80 81" fill="none" xmlns="http://www.w3.org/2000/svg">
<path d="M50.8511 34.4375L39.6085 48.4418C38.3661 49.9895 36.0555 50.1155 34.6521 48.7122L30.0078 44.0678" stroke="white" stroke-width="4" stroke-linecap="round"/>
<path d="M43.526 15.049C44.218 14.6036 44.5641 14.3809 44.8447 14.2358C48.3914 12.4021 52.7434 14.0758 54.1474 17.8133C54.2584 18.109 54.366 18.5061 54.5814 19.3004C54.6807 19.6672 54.7304 19.8506 54.786 20.0193C55.4587 22.0631 57.0764 23.6567 59.13 24.2984C59.2997 24.3514 59.4837 24.3983 59.852 24.4922L60.352 24.6196C62.082 25.0606 62.947 25.2811 63.5787 25.5944C66.4504 27.0185 67.902 30.2844 67.035 33.3702C66.8444 34.0491 66.4284 34.839 65.5967 36.4187L65.3564 36.8753C65.1794 37.2113 65.0907 37.3797 65.0164 37.541C64.1167 39.4953 64.2157 41.764 65.2824 43.633C65.3704 43.787 65.4731 43.947 65.6787 44.2663C66.1241 44.9583 66.3467 45.3043 66.4921 45.585C68.3257 49.1317 66.6521 53.4837 62.9144 54.8877C62.6187 54.9987 62.2217 55.1064 61.4274 55.3217C61.0607 55.421 60.8771 55.4707 60.7084 55.5263C58.6647 56.199 57.071 57.8167 56.4294 59.8703C56.3764 60.04 56.3294 60.224 56.2357 60.5923L56.108 61.092C55.667 62.8224 55.4467 63.6873 55.1334 64.319C53.7094 67.1907 50.4434 68.6423 47.3577 67.7753C46.6787 67.5847 45.8887 67.1687 44.309 66.3367L43.8527 66.0963C43.5164 65.9193 43.3484 65.831 43.1871 65.7567C41.2324 64.857 38.9637 64.956 37.095 66.0223C36.9407 66.1107 36.781 66.2133 36.4614 66.419C35.7694 66.8643 35.4234 67.087 35.1427 67.2323C31.5962 69.066 27.2442 67.3923 25.8401 63.6547C25.729 63.359 25.6214 62.962 25.4061 62.1677C25.3067 61.8007 25.257 61.6173 25.2015 61.4487C24.5288 59.405 22.9111 57.8113 20.8573 57.1697C20.6878 57.1167 20.5037 57.0697 20.1355 56.9757L19.6357 56.8483C17.9056 56.4073 17.0406 56.187 16.4088 55.8737C13.5372 54.4497 12.0855 51.1837 12.9525 48.0977C13.1432 47.419 13.5591 46.629 14.391 45.0493L14.6313 44.5927C14.8083 44.2567 14.8968 44.0883 14.9711 43.927C15.8708 41.9727 15.7718 39.704 14.7052 37.835C14.6172 37.681 14.5144 37.521 14.3088 37.2017C13.8634 36.5097 13.6407 36.1637 13.4956 35.883C11.6619 32.3364 13.3355 27.9844 17.073 26.5803C17.3687 26.4692 17.7659 26.3616 18.5602 26.1463C18.9269 26.0469 19.1103 25.9972 19.279 25.9417C21.3229 25.2691 22.9164 23.6513 23.5582 21.5976C23.6112 21.428 23.6581 21.2439 23.752 20.8757L23.8794 20.3759C24.3204 18.6458 24.5409 17.7808 24.8542 17.149C26.2782 14.2775 29.5442 12.8257 32.63 13.6927C33.3089 13.8834 34.0987 14.2993 35.6784 15.1312L36.135 15.3715C36.471 15.5485 36.6394 15.637 36.8007 15.7113C38.755 16.611 41.0237 16.512 42.8927 15.4455C43.0467 15.3574 43.2067 15.2546 43.526 15.049Z" stroke="white" stroke-width="4" stroke-linecap="round"/>
</svg>
