<svg width="80" height="81" viewBox="0 0 80 81" fill="none" xmlns="http://www.w3.org/2000/svg">
<path d="M71.6771 25.7344C71.6771 31.2572 57.4994 35.7344 40.0104 35.7344C22.5214 35.7344 8.34375 31.2572 8.34375 25.7344M71.6771 25.7344C71.6771 20.2115 57.4994 15.7344 40.0104 15.7344C22.5214 15.7344 8.34375 20.2115 8.34375 25.7344M71.6771 25.7344V35.7344M8.34375 25.7344V35.7344M71.6771 35.7344C71.6771 41.2574 57.4994 45.7344 40.0104 45.7344C22.5214 45.7344 8.34375 41.2574 8.34375 35.7344M71.6771 35.7344V45.7344M8.34375 35.7344V45.7344M71.6771 45.7344C71.6771 51.2574 57.4994 55.7344 40.0104 55.7344C22.5214 55.7344 8.34375 51.2574 8.34375 45.7344M71.6771 45.7344V55.7344C71.6771 61.2574 57.4994 65.7344 40.0104 65.7344C22.5214 65.7344 8.34375 61.2574 8.34375 55.7344V45.7344" stroke="white" stroke-width="4" stroke-linecap="round"/>
</svg>
