<svg width="75" height="76" viewBox="0 0 75 76" fill="none" xmlns="http://www.w3.org/2000/svg">
    <path d="M67.1953 24.3594C67.1953 29.537 53.9037 33.7344 37.5078 33.7344C21.1118 33.7344 7.82031 29.537 7.82031 24.3594M67.1953 24.3594C67.1953 19.1817 53.9037 14.9844 37.5078 14.9844C21.1118 14.9844 7.82031 19.1817 7.82031 24.3594M67.1953 24.3594V33.7344M7.82031 24.3594V33.7344M67.1953 33.7344C67.1953 38.9122 53.9037 43.1094 37.5078 43.1094C21.1118 43.1094 7.82031 38.9122 7.82031 33.7344M67.1953 33.7344V43.1094M7.82031 33.7344V43.1094M67.1953 43.1094C67.1953 48.2872 53.9037 52.4844 37.5078 52.4844C21.1118 52.4844 7.82031 48.2872 7.82031 43.1094M67.1953 43.1094V52.4844C67.1953 57.6622 53.9037 61.8594 37.5078 61.8594C21.1118 61.8594 7.82031 57.6622 7.82031 52.4844V43.1094"
          stroke="currentColor" stroke-width="4" stroke-linecap="round"/>
</svg>
