<svg width="698" height="126" viewBox="0 0 698 126" fill="none" xmlns="http://www.w3.org/2000/svg">
    <g opacity="0.5">
        <circle cx="3.06826" cy="3.82998" r="2.78408" fill="white"/>
        <circle cx="26.6366" cy="3.82998" r="2.78408" fill="white"/>
        <circle cx="50.2045" cy="3.82998" r="2.78408" fill="white"/>
        <circle cx="73.7729" cy="3.82998" r="2.78408" fill="white"/>
        <circle cx="97.3407" cy="3.82998" r="2.78408" fill="white"/>
        <circle cx="120.909" cy="3.82998" r="2.78408" fill="white"/>
        <circle cx="3.06826" cy="27.3983" r="2.78408" fill="white"/>
        <circle cx="26.6366" cy="27.3983" r="2.78408" fill="white"/>
        <circle cx="50.2045" cy="27.3983" r="2.78408" fill="white"/>
        <circle cx="73.7729" cy="27.3983" r="2.78408" fill="white"/>
        <circle cx="97.3407" cy="27.3983" r="2.78408" fill="white"/>
        <circle cx="120.909" cy="27.3983" r="2.78408" fill="white"/>
        <circle cx="3.06826" cy="50.9662" r="2.78408" fill="white"/>
        <circle cx="26.6366" cy="50.9662" r="2.78408" fill="white"/>
        <circle cx="50.2045" cy="50.9662" r="2.78408" fill="white"/>
        <circle cx="73.7729" cy="50.9662" r="2.78408" fill="white"/>
        <circle cx="97.3407" cy="50.9662" r="2.78408" fill="white"/>
        <circle cx="120.909" cy="50.9662" r="2.78408" fill="white"/>
        <circle cx="3.06826" cy="74.5346" r="2.78408" fill="white"/>
        <circle cx="26.6366" cy="74.5346" r="2.78408" fill="white"/>
        <circle cx="50.2045" cy="74.5346" r="2.78408" fill="white"/>
        <circle cx="73.7729" cy="74.5346" r="2.78408" fill="white"/>
        <circle cx="97.3407" cy="74.5346" r="2.78408" fill="white"/>
        <circle cx="120.909" cy="74.5346" r="2.78408" fill="white"/>
        <circle cx="3.06826" cy="98.1024" r="2.78408" fill="white"/>
        <circle cx="26.6366" cy="98.1024" r="2.78408" fill="white"/>
        <circle cx="50.2045" cy="98.1024" r="2.78408" fill="white"/>
        <circle cx="73.7729" cy="98.1024" r="2.78408" fill="white"/>
        <circle cx="97.3407" cy="98.1024" r="2.78408" fill="white"/>
        <circle cx="120.909" cy="98.1024" r="2.78408" fill="white"/>
        <circle cx="3.06826" cy="121.671" r="2.78408" fill="white"/>
        <circle cx="26.6366" cy="121.671" r="2.78408" fill="white"/>
        <circle cx="50.2045" cy="121.671" r="2.78408" fill="white"/>
        <circle cx="73.7729" cy="121.671" r="2.78408" fill="white"/>
        <circle cx="97.3407" cy="121.671" r="2.78408" fill="white"/>
        <circle cx="120.909" cy="121.671" r="2.78408" fill="white"/>
    </g>
    <g opacity="0.5">
        <circle cx="144.475" cy="26.7704" r="2.78408" fill="white"/>
        <circle cx="216.435" cy="26.7704" r="2.78408" fill="white"/>
        <circle cx="168.461" cy="26.7704" r="2.78408" fill="white"/>
        <circle cx="240.422" cy="26.7704" r="2.78408" fill="white"/>
        <circle cx="192.451" cy="26.7704" r="2.78408" fill="white"/>
        <circle cx="264.412" cy="26.7704" r="2.78408" fill="white"/>
        <circle cx="144.48" cy="2.78408" r="2.78408" fill="white"/>
        <circle cx="216.441" cy="2.78408" r="2.78408" fill="white"/>
        <circle cx="168.467" cy="2.78408" r="2.78408" fill="white"/>
        <circle cx="240.428" cy="2.78408" r="2.78408" fill="white"/>
        <circle cx="192.451" cy="2.78408" r="2.78408" fill="white"/>
        <circle cx="264.412" cy="2.78408" r="2.78408" fill="white"/>
        <circle cx="144.475" cy="50.7562" r="2.78408" fill="white"/>
        <circle cx="216.435" cy="50.7562" r="2.78408" fill="white"/>
        <circle cx="168.461" cy="50.7562" r="2.78408" fill="white"/>
        <circle cx="240.422" cy="50.7562" r="2.78408" fill="white"/>
        <circle cx="192.451" cy="50.7562" r="2.78408" fill="white"/>
        <circle cx="264.412" cy="50.7562" r="2.78408" fill="white"/>
        <circle cx="144.475" cy="74.7431" r="2.78408" fill="white"/>
        <circle cx="216.435" cy="74.7431" r="2.78408" fill="white"/>
        <circle cx="168.461" cy="74.7431" r="2.78408" fill="white"/>
        <circle cx="240.422" cy="74.7431" r="2.78408" fill="white"/>
        <circle cx="192.451" cy="74.7431" r="2.78408" fill="white"/>
        <circle cx="264.412" cy="74.7431" r="2.78408" fill="white"/>
        <circle cx="144.475" cy="98.7294" r="2.78408" fill="white"/>
        <circle cx="216.435" cy="98.7294" r="2.78408" fill="white"/>
        <circle cx="168.461" cy="98.7294" r="2.78408" fill="white"/>
        <circle cx="240.422" cy="98.7294" r="2.78408" fill="white"/>
        <circle cx="192.451" cy="98.7294" r="2.78408" fill="white"/>
        <circle cx="264.412" cy="98.7294" r="2.78408" fill="white"/>
        <circle cx="144.475" cy="122.716" r="2.78408" fill="white"/>
        <circle cx="216.435" cy="122.716" r="2.78408" fill="white"/>
        <circle cx="168.461" cy="122.716" r="2.78408" fill="white"/>
        <circle cx="240.422" cy="122.716" r="2.78408" fill="white"/>
        <circle cx="192.451" cy="122.716" r="2.78408" fill="white"/>
        <circle cx="264.412" cy="122.716" r="2.78408" fill="white"/>
    </g>
    <g opacity="0.5">
        <circle cx="287.978" cy="26.7704" r="2.78408" fill="white"/>
        <circle cx="359.939" cy="26.7704" r="2.78408" fill="white"/>
        <circle cx="311.965" cy="26.7704" r="2.78408" fill="white"/>
        <circle cx="383.926" cy="26.7704" r="2.78408" fill="white"/>
        <circle cx="335.955" cy="26.7704" r="2.78408" fill="white"/>
        <circle cx="407.916" cy="26.7704" r="2.78408" fill="white"/>
        <circle cx="287.984" cy="2.78408" r="2.78408" fill="white"/>
        <circle cx="359.945" cy="2.78408" r="2.78408" fill="white"/>
        <circle cx="311.971" cy="2.78408" r="2.78408" fill="white"/>
        <circle cx="383.932" cy="2.78408" r="2.78408" fill="white"/>
        <circle cx="335.955" cy="2.78408" r="2.78408" fill="white"/>
        <circle cx="407.916" cy="2.78408" r="2.78408" fill="white"/>
        <circle cx="287.978" cy="50.7562" r="2.78408" fill="white"/>
        <circle cx="359.939" cy="50.7562" r="2.78408" fill="white"/>
        <circle cx="311.965" cy="50.7562" r="2.78408" fill="white"/>
        <circle cx="383.926" cy="50.7562" r="2.78408" fill="white"/>
        <circle cx="335.955" cy="50.7562" r="2.78408" fill="white"/>
        <circle cx="407.916" cy="50.7562" r="2.78408" fill="white"/>
        <circle cx="287.978" cy="74.7431" r="2.78408" fill="white"/>
        <circle cx="359.939" cy="74.7431" r="2.78408" fill="white"/>
        <circle cx="311.965" cy="74.7431" r="2.78408" fill="white"/>
        <circle cx="383.926" cy="74.7431" r="2.78408" fill="white"/>
        <circle cx="335.955" cy="74.7431" r="2.78408" fill="white"/>
        <circle cx="407.916" cy="74.7431" r="2.78408" fill="white"/>
        <circle cx="287.978" cy="98.7294" r="2.78408" fill="white"/>
        <circle cx="359.939" cy="98.7294" r="2.78408" fill="white"/>
        <circle cx="311.965" cy="98.7294" r="2.78408" fill="white"/>
        <circle cx="383.926" cy="98.7294" r="2.78408" fill="white"/>
        <circle cx="335.955" cy="98.7294" r="2.78408" fill="white"/>
        <circle cx="407.916" cy="98.7294" r="2.78408" fill="white"/>
        <circle cx="287.978" cy="122.716" r="2.78408" fill="white"/>
        <circle cx="359.939" cy="122.716" r="2.78408" fill="white"/>
        <circle cx="311.965" cy="122.716" r="2.78408" fill="white"/>
        <circle cx="383.926" cy="122.716" r="2.78408" fill="white"/>
        <circle cx="335.955" cy="122.716" r="2.78408" fill="white"/>
        <circle cx="407.916" cy="122.716" r="2.78408" fill="white"/>
    </g>
    <g opacity="0.5">
        <circle cx="431.486" cy="26.7704" r="2.78408" fill="white"/>
        <circle cx="503.447" cy="26.7704" r="2.78408" fill="white"/>
        <circle cx="455.473" cy="26.7704" r="2.78408" fill="white"/>
        <circle cx="527.433" cy="26.7704" r="2.78408" fill="white"/>
        <circle cx="479.463" cy="26.7704" r="2.78408" fill="white"/>
        <circle cx="551.424" cy="26.7704" r="2.78408" fill="white"/>
        <circle cx="431.492" cy="2.78408" r="2.78408" fill="white"/>
        <circle cx="503.453" cy="2.78408" r="2.78408" fill="white"/>
        <circle cx="455.478" cy="2.78408" r="2.78408" fill="white"/>
        <circle cx="527.439" cy="2.78408" r="2.78408" fill="white"/>
        <circle cx="479.463" cy="2.78408" r="2.78408" fill="white"/>
        <circle cx="551.424" cy="2.78408" r="2.78408" fill="white"/>
        <circle cx="431.486" cy="50.7562" r="2.78408" fill="white"/>
        <circle cx="503.447" cy="50.7562" r="2.78408" fill="white"/>
        <circle cx="455.473" cy="50.7562" r="2.78408" fill="white"/>
        <circle cx="527.433" cy="50.7562" r="2.78408" fill="white"/>
        <circle cx="479.463" cy="50.7562" r="2.78408" fill="white"/>
        <circle cx="551.424" cy="50.7562" r="2.78408" fill="white"/>
        <circle cx="431.486" cy="74.7431" r="2.78408" fill="white"/>
        <circle cx="503.447" cy="74.7431" r="2.78408" fill="white"/>
        <circle cx="455.473" cy="74.7431" r="2.78408" fill="white"/>
        <circle cx="527.433" cy="74.7431" r="2.78408" fill="white"/>
        <circle cx="479.463" cy="74.7431" r="2.78408" fill="white"/>
        <circle cx="551.424" cy="74.7431" r="2.78408" fill="white"/>
        <circle cx="431.486" cy="98.7294" r="2.78408" fill="white"/>
        <circle cx="503.447" cy="98.7294" r="2.78408" fill="white"/>
        <circle cx="455.473" cy="98.7294" r="2.78408" fill="white"/>
        <circle cx="527.433" cy="98.7294" r="2.78408" fill="white"/>
        <circle cx="479.463" cy="98.7294" r="2.78408" fill="white"/>
        <circle cx="551.424" cy="98.7294" r="2.78408" fill="white"/>
        <circle cx="431.486" cy="122.716" r="2.78408" fill="white"/>
        <circle cx="503.447" cy="122.716" r="2.78408" fill="white"/>
        <circle cx="455.473" cy="122.716" r="2.78408" fill="white"/>
        <circle cx="527.433" cy="122.716" r="2.78408" fill="white"/>
        <circle cx="479.463" cy="122.716" r="2.78408" fill="white"/>
        <circle cx="551.424" cy="122.716" r="2.78408" fill="white"/>
    </g>
    <g opacity="0.5">
        <circle cx="574.994" cy="26.7704" r="2.78408" fill="white"/>
        <circle cx="646.955" cy="26.7704" r="2.78408" fill="white"/>
        <circle cx="598.98" cy="26.7704" r="2.78408" fill="white"/>
        <circle cx="670.941" cy="26.7704" r="2.78408" fill="white"/>
        <circle cx="622.971" cy="26.7704" r="2.78408" fill="white"/>
        <circle cx="694.932" cy="26.7704" r="2.78408" fill="white"/>
        <circle cx="575" cy="2.78408" r="2.78408" fill="white"/>
        <circle cx="646.961" cy="2.78408" r="2.78408" fill="white"/>
        <circle cx="598.986" cy="2.78408" r="2.78408" fill="white"/>
        <circle cx="670.947" cy="2.78408" r="2.78408" fill="white"/>
        <circle cx="622.971" cy="2.78408" r="2.78408" fill="white"/>
        <circle cx="694.932" cy="2.78408" r="2.78408" fill="white"/>
        <circle cx="574.994" cy="50.7562" r="2.78408" fill="white"/>
        <circle cx="646.955" cy="50.7562" r="2.78408" fill="white"/>
        <circle cx="598.98" cy="50.7562" r="2.78408" fill="white"/>
        <circle cx="670.941" cy="50.7562" r="2.78408" fill="white"/>
        <circle cx="622.971" cy="50.7562" r="2.78408" fill="white"/>
        <circle cx="694.932" cy="50.7562" r="2.78408" fill="white"/>
        <circle cx="574.994" cy="74.7431" r="2.78408" fill="white"/>
        <circle cx="646.955" cy="74.7431" r="2.78408" fill="white"/>
        <circle cx="598.98" cy="74.7431" r="2.78408" fill="white"/>
        <circle cx="670.941" cy="74.7431" r="2.78408" fill="white"/>
        <circle cx="622.971" cy="74.7431" r="2.78408" fill="white"/>
        <circle cx="694.932" cy="74.7431" r="2.78408" fill="white"/>
        <circle cx="574.994" cy="98.7294" r="2.78408" fill="white"/>
        <circle cx="646.955" cy="98.7294" r="2.78408" fill="white"/>
        <circle cx="598.98" cy="98.7294" r="2.78408" fill="white"/>
        <circle cx="670.941" cy="98.7294" r="2.78408" fill="white"/>
        <circle cx="622.971" cy="98.7294" r="2.78408" fill="white"/>
        <circle cx="694.932" cy="98.7294" r="2.78408" fill="white"/>
        <circle cx="574.994" cy="122.716" r="2.78408" fill="white"/>
        <circle cx="646.955" cy="122.716" r="2.78408" fill="white"/>
        <circle cx="598.98" cy="122.716" r="2.78408" fill="white"/>
        <circle cx="670.941" cy="122.716" r="2.78408" fill="white"/>
        <circle cx="622.971" cy="122.716" r="2.78408" fill="white"/>
        <circle cx="694.932" cy="122.716" r="2.78408" fill="white"/>
    </g>
</svg>
