<svg width="126" height="127" viewBox="0 0 126 127" fill="none" xmlns="http://www.w3.org/2000/svg">
    <g opacity="0.5">
        <circle cx="3.27822" cy="27.5546" r="2.78408" fill="white"/>
        <circle cx="75.2392" cy="27.5546" r="2.78408" fill="white"/>
        <circle cx="27.2645" cy="27.5546" r="2.78408" fill="white"/>
        <circle cx="99.2255" cy="27.5546" r="2.78408" fill="white"/>
        <circle cx="51.2548" cy="27.5546" r="2.78408" fill="white"/>
        <circle cx="123.216" cy="27.5546" r="2.78408" fill="white"/>
        <circle cx="3.28408" cy="3.56826" r="2.78408" fill="white"/>
        <circle cx="75.245" cy="3.56826" r="2.78408" fill="white"/>
        <circle cx="27.2704" cy="3.56826" r="2.78408" fill="white"/>
        <circle cx="99.2313" cy="3.56826" r="2.78408" fill="white"/>
        <circle cx="51.2548" cy="3.56826" r="2.78408" fill="white"/>
        <circle cx="123.216" cy="3.56826" r="2.78408" fill="white"/>
        <circle cx="3.27822" cy="51.5404" r="2.78408" fill="white"/>
        <circle cx="75.2392" cy="51.5404" r="2.78408" fill="white"/>
        <circle cx="27.2645" cy="51.5404" r="2.78408" fill="white"/>
        <circle cx="99.2255" cy="51.5404" r="2.78408" fill="white"/>
        <circle cx="51.2548" cy="51.5404" r="2.78408" fill="white"/>
        <circle cx="123.216" cy="51.5404" r="2.78408" fill="white"/>
        <circle cx="3.27822" cy="75.5272" r="2.78408" fill="white"/>
        <circle cx="75.2392" cy="75.5272" r="2.78408" fill="white"/>
        <circle cx="27.2645" cy="75.5272" r="2.78408" fill="white"/>
        <circle cx="99.2255" cy="75.5272" r="2.78408" fill="white"/>
        <circle cx="51.2548" cy="75.5272" r="2.78408" fill="white"/>
        <circle cx="123.216" cy="75.5272" r="2.78408" fill="white"/>
        <circle cx="3.27822" cy="99.5136" r="2.78408" fill="white"/>
        <circle cx="75.2392" cy="99.5136" r="2.78408" fill="white"/>
        <circle cx="27.2645" cy="99.5136" r="2.78408" fill="white"/>
        <circle cx="99.2255" cy="99.5136" r="2.78408" fill="white"/>
        <circle cx="51.2548" cy="99.5136" r="2.78408" fill="white"/>
        <circle cx="123.216" cy="99.5136" r="2.78408" fill="white"/>
        <circle cx="3.27822" cy="123.5" r="2.78408" fill="white"/>
        <circle cx="75.2392" cy="123.5" r="2.78408" fill="white"/>
        <circle cx="27.2645" cy="123.5" r="2.78408" fill="white"/>
        <circle cx="99.2255" cy="123.5" r="2.78408" fill="white"/>
        <circle cx="51.2548" cy="123.5" r="2.78408" fill="white"/>
        <circle cx="123.216" cy="123.5" r="2.78408" fill="white"/>
    </g>
</svg>
