<svg width="80" height="81" viewBox="0 0 80 81" fill="none" xmlns="http://www.w3.org/2000/svg">
    <path d="M50.8472 33.9082L39.6046 47.9125C38.3622 49.4602 36.0516 49.5862 34.6482 48.1829L30.0039 43.5385"
          stroke="currentColor" stroke-width="4.26667" stroke-linecap="round"/>
    <path d="M43.5339 14.5187C44.2259 14.0733 44.5719 13.8506 44.8525 13.7055C48.3992 11.8719 52.7512 13.5455 54.1552 17.283C54.2662 17.5787 54.3739 17.9759 54.5892 18.7702C54.6885 19.1369 54.7382 19.3203 54.7939 19.489C55.4665 21.5329 57.0842 23.1264 59.1379 23.7682C59.3075 23.8211 59.4915 23.8681 59.8599 23.9619L60.3599 24.0893C62.0899 24.5304 62.9549 24.7509 63.5865 25.0642C66.4582 26.4882 67.9099 29.7542 67.0429 32.8399C66.8522 33.5188 66.4362 34.3087 65.6045 35.8884L65.3642 36.3451C65.1872 36.6811 65.0985 36.8494 65.0242 37.0107C64.1245 38.9651 64.2235 41.2337 65.2902 43.1027C65.3782 43.2567 65.4809 43.4167 65.6865 43.7361C66.1319 44.4281 66.3545 44.7741 66.4999 45.0547C68.3335 48.6014 66.6599 52.9534 62.9222 54.3574C62.6265 54.4684 62.2295 54.5761 61.4352 54.7914C61.0685 54.8907 60.8849 54.9404 60.7162 54.9961C58.6725 55.6687 57.0789 57.2864 56.4372 59.3401C56.3842 59.5097 56.3372 59.6937 56.2435 60.0621L56.1159 60.5617C55.6749 62.2921 55.4545 63.1571 55.1412 63.7887C53.7172 66.6604 50.4512 68.1121 47.3655 67.2451C46.6865 67.0544 45.8965 66.6384 44.3169 65.8064L43.8605 65.5661C43.5242 65.3891 43.3562 65.3007 43.1949 65.2264C41.2402 64.3267 38.9715 64.4257 37.1029 65.4921C36.9485 65.5804 36.7889 65.6831 36.4692 65.8887C35.7772 66.3341 35.4312 66.5567 35.1505 66.7021C31.604 68.5357 27.252 66.8621 25.8479 63.1244C25.7368 62.8287 25.6292 62.4317 25.4139 61.6374C25.3145 61.2704 25.2648 61.0871 25.2093 60.9184C24.5367 58.8747 22.9189 57.2811 20.8651 56.6394C20.6956 56.5864 20.5115 56.5394 20.1433 56.4454L19.6435 56.3181C17.9134 55.8771 17.0484 55.6567 16.4166 55.3434C13.545 53.9194 12.0933 50.6534 12.9603 47.5674C13.151 46.8887 13.5669 46.0987 14.3988 44.5191L14.6391 44.0624C14.8161 43.7264 14.9046 43.5581 14.9789 43.3967C15.8786 41.4424 15.7796 39.1737 14.7131 37.3047C14.625 37.1507 14.5222 36.9907 14.3166 36.6714C13.8712 35.9794 13.6485 35.6334 13.5034 35.3527C11.6697 31.8062 13.3434 27.4541 17.0809 26.0501C17.3766 25.939 17.7737 25.8313 18.568 25.616C18.9348 25.5167 19.1181 25.467 19.2869 25.4114C21.3307 24.7388 22.9243 23.121 23.566 21.0673C23.619 20.8978 23.6659 20.7137 23.7598 20.3455L23.8872 19.8456C24.3282 18.1155 24.5487 17.2505 24.862 16.6187C26.2861 13.7472 29.552 12.2955 32.6378 13.1624C33.3167 13.3531 34.1065 13.7691 35.6862 14.6009L36.1429 14.8412C36.4789 15.0183 36.6472 15.1068 36.8085 15.181C38.7629 16.0807 41.0315 15.9817 42.9005 14.9152C43.0545 14.8272 43.2145 14.7244 43.5339 14.5187Z"
          stroke="currentColor" stroke-width="4.26667" stroke-linecap="round"/>
</svg>
