<svg width="80" height="81" viewBox="0 0 80 81" fill="none" xmlns="http://www.w3.org/2000/svg">
    <path d="M20 57.5884L27.5667 42.1524C30.0642 37.0574 37.379 37.2127 39.658 42.409L41.5153 46.6434C43.8717 52.016 51.518 51.945 53.7743 46.5297L61.6667 27.5884"
          stroke="currentColor" stroke-width="4" stroke-linecap="round"/>
    <path d="M50.3335 9.25537H29.6668C22.1995 9.25537 18.4658 9.25537 15.6136 10.7086C13.1048 11.9869 11.0651 14.0267 9.78673 16.5355C8.3335 19.3877 8.3335 23.1213 8.3335 30.5887V51.2554C8.3335 58.7227 8.3335 62.4564 9.78673 65.3087C11.0651 67.8174 13.1048 69.857 15.6136 71.1354C18.4658 72.5887 22.1995 72.5887 29.6668 72.5887H50.3335C57.8008 72.5887 61.5345 72.5887 64.3868 71.1354C66.8955 69.857 68.9352 67.8174 70.2135 65.3087C71.6668 62.4564 71.6668 58.7227 71.6668 51.2554V30.5887C71.6668 23.1213 71.6668 19.3877 70.2135 16.5355C68.9352 14.0267 66.8955 11.9869 64.3868 10.7086C61.5345 9.25537 57.8008 9.25537 50.3335 9.25537Z"
          stroke="currentColor" stroke-width="4" stroke-linecap="round"/>
</svg>
