<svg width="60" height="35" viewBox="0 0 60 35" fill="none" xmlns="http://www.w3.org/2000/svg">
<path d="M0.999999 34.5369C0.447714 34.5369 0 34.0892 0 33.5369V1.46387C0 0.911582 0.447715 0.463867 1 0.463867H59C59.5523 0.463867 60 0.911582 60 1.46387V33.5369C60 34.0892 59.5523 34.5369 59 34.5369H0.999999Z" fill="#0F86D9"/>
<path d="M21.4657 10.905C21.4657 11.4573 21.018 11.905 20.4657 11.905H16.4063C15.854 11.905 15.4063 12.3527 15.4063 12.905V24.9356C15.4063 25.4879 14.9586 25.9356 14.4063 25.9356H13C12.4477 25.9356 12 25.4879 12 24.9356V10.0664C12 9.51412 12.4477 9.06641 13 9.06641H20.4657C21.018 9.06641 21.4657 9.51412 21.4657 10.0664V10.905Z" fill="white"/>
<path d="M33.7225 20.3157C34.2922 20.3157 34.7537 20.7924 34.6707 21.3559C34.4621 22.7725 33.9538 23.8817 33.1457 24.6836C32.1493 25.6722 30.7435 26.1666 28.9284 26.1666C27.0205 26.1666 25.5588 25.539 24.5431 24.2839C23.5274 23.0287 23.0195 21.2387 23.0195 18.9138V16.0752C23.0195 13.758 23.5448 11.9718 24.5952 10.7167C25.6457 9.46156 27.1055 8.83398 28.9747 8.83398C30.813 8.83398 32.2091 9.34763 33.163 10.3749C33.9329 11.204 34.4348 12.3248 34.6689 13.7374C34.7636 14.3087 34.2994 14.8008 33.7203 14.8008H32.3474C31.8052 14.8008 31.372 14.3669 31.3039 13.829C31.2182 13.1517 31.0578 12.6549 30.8227 12.3387C30.4867 11.8869 29.8707 11.661 28.9747 11.661C28.0633 11.661 27.4183 11.9796 27.0399 12.6168C26.6614 13.254 26.4606 14.3026 26.4374 15.7624V18.9485C26.4374 20.6246 26.6247 21.7755 26.9993 22.4011C27.3739 23.0268 28.0169 23.3396 28.9284 23.3396C29.8244 23.3396 30.4423 23.1214 30.7821 22.685C31.0172 22.3831 31.1821 21.9121 31.2768 21.2719C31.3552 20.7411 31.7852 20.3157 32.3217 20.3157H33.7225Z" fill="white"/>
<path d="M48.0027 10.905C48.0027 11.4573 47.555 11.905 47.0027 11.905H44.8318C44.2795 11.905 43.8318 12.3527 43.8318 12.905V24.9356C43.8318 25.4879 43.3841 25.9356 42.8318 25.9356H41.4139C40.8616 25.9356 40.4139 25.4879 40.4139 24.9356V12.905C40.4139 12.3527 39.9662 11.905 39.4139 11.905H37.3125C36.7602 11.905 36.3125 11.4573 36.3125 10.905V10.0664C36.3125 9.51412 36.7602 9.06641 37.3125 9.06641H47.0027C47.555 9.06641 48.0027 9.51412 48.0027 10.0664V10.905Z" fill="white"/>
</svg>
