<svg width="25" height="25" viewBox="0 0 25 25" fill="none" xmlns="http://www.w3.org/2000/svg">
<path d="M15.436 17.4189C15.436 19.0758 16.7791 20.4189 18.436 20.4189C20.0929 20.4189 21.436 19.0758 21.436 17.4189C21.436 15.762 20.0929 14.4189 18.436 14.4189C16.7791 14.4189 15.436 15.762 15.436 17.4189ZM15.436 17.4189H9.43604M9.43604 17.4189C9.43604 19.0758 8.09289 20.4189 6.43604 20.4189C4.77919 20.4189 3.43604 19.0758 3.43604 17.4189C3.43604 15.762 4.77919 14.4189 6.43604 14.4189C8.09289 14.4189 9.43604 15.762 9.43604 17.4189ZM7.87528 14.786L11.0035 9.05551M13.8773 9.05066L17.0483 14.7584M15.436 6.41895C15.436 8.0758 14.0929 9.41895 12.436 9.41895C10.7791 9.41895 9.43604 8.0758 9.43604 6.41895C9.43604 4.7621 10.7791 3.41895 12.436 3.41895C14.0929 3.41895 15.436 4.7621 15.436 6.41895Z" stroke="white" stroke-opacity="0.9" stroke-width="2" stroke-linecap="round"/>
</svg>
