<svg width="25" height="25" viewBox="0 0 25 25" fill="none" xmlns="http://www.w3.org/2000/svg">
<path d="M15.2097 3.91895H9.66235C7.65795 3.91895 6.65576 3.91895 5.89018 4.30902C5.21675 4.65216 4.66925 5.19966 4.32611 5.87309C3.93604 6.63867 3.93604 7.64086 3.93604 9.64526V15.1926C3.93604 17.197 3.93604 18.1992 4.32611 18.9648C4.66925 19.6382 5.21675 20.1857 5.89018 20.5288C6.65576 20.9189 7.65795 20.9189 9.66235 20.9189H15.2097C17.2141 20.9189 18.2163 20.9189 18.9819 20.5288C19.6553 20.1857 20.2028 19.6382 20.5459 18.9648C20.936 18.1992 20.936 17.197 20.936 15.1926V9.64526C20.936 7.64086 20.936 6.63867 20.5459 5.87309C20.2028 5.19966 19.6553 4.65216 18.9819 4.30902C18.2163 3.91895 17.2141 3.91895 15.2097 3.91895Z" stroke="white" stroke-width="1.78947" stroke-linecap="round"/>
<path d="M13.3308 16.8926H17.3571" stroke="white" stroke-width="1.78947" stroke-linecap="round"/>
<path d="M7.96191 11.5244L10.5867 13.4939C11.0638 13.852 11.0636 14.5678 10.5863 14.9255L7.96191 16.8928" stroke="white" stroke-width="1.78947" stroke-linecap="round"/>
</svg>
