<svg width="100" height="101" viewBox="0 0 100 101" fill="none" xmlns="http://www.w3.org/2000/svg">
<path d="M74.375 42.1418H58.125C53.6376 42.1418 50 38.5042 50 34.0168V17.7668M37.8125 70.5793V62.4543M45.9375 70.5793V58.3918M54.0625 70.5793V66.5168M62.1875 70.5793V54.3293M74.375 41.4448V74.6418C74.375 79.1293 70.7374 82.7668 66.25 82.7668H33.75C29.2627 82.7668 25.625 79.1293 25.625 74.6418V25.8918C25.625 21.4045 29.2627 17.7668 33.75 17.7668H50.6971C52.8519 17.7668 54.9185 18.6229 56.4423 20.1466L71.9952 35.6996C73.519 37.2233 74.375 39.2899 74.375 41.4448Z" stroke="#0F86D9" stroke-width="4.875" stroke-linecap="round"/>
</svg>
