<svg width="75" height="75" viewBox="0 0 75 75" fill="none" xmlns="http://www.w3.org/2000/svg">
<path d="M37.4999 48.4156C24.2855 48.4156 13.573 38.071 13.573 25.3103C13.573 12.5497 24.2855 2.20508 37.4999 2.20508C50.7144 2.20508 61.4269 12.5497 61.4269 25.3103C61.4269 38.071 50.7144 48.4156 37.4999 48.4156ZM37.4999 48.4156L52.0232 70.8589C53.6558 73.3824 57.6975 72.1024 57.4654 69.1353L56.8776 61.6226C56.6985 59.3328 59.2551 57.7902 61.3076 58.9493L68.0427 62.7528C70.7022 64.255 73.6656 61.3084 72.0325 58.7853L58.0675 37.1237M37.4999 48.4156L22.977 70.8589C21.3442 73.3824 17.3028 72.1024 17.5348 69.1353L18.1224 61.6226C18.3015 59.3328 15.7451 57.7902 13.6925 58.9493L6.95747 62.7528C4.29766 64.255 1.33458 61.3084 2.9674 58.7853L16.9326 37.1237M45.4755 25.3103C45.4755 29.564 41.9048 33.0121 37.4999 33.0121C33.0953 33.0121 29.5243 29.564 29.5243 25.3103C29.5243 21.0568 33.0953 17.6086 37.4999 17.6086C41.9048 17.6086 45.4755 21.0568 45.4755 25.3103Z" stroke="#0F86D9" stroke-width="4" stroke-linecap="round"/>
</svg>
