<svg width="26" height="27" viewBox="0 0 26 27" fill="none" xmlns="http://www.w3.org/2000/svg">
<path d="M19.6095 14.5957C19.4857 14.4718 19.3388 14.3735 19.177 14.3064C19.0153 14.2393 18.8419 14.2048 18.6668 14.2048C18.4917 14.2048 18.3183 14.2393 18.1565 14.3064C17.9948 14.3735 17.8478 14.4718 17.7241 14.5957L15.5988 16.7211C14.6135 16.4277 12.7748 15.7611 11.6095 14.5957C10.4441 13.4304 9.77745 11.5917 9.48412 10.6064L11.6095 8.48106C11.7334 8.35734 11.8317 8.21041 11.8988 8.04865C11.9659 7.8869 12.0004 7.71351 12.0004 7.53839C12.0004 7.36328 11.9659 7.18989 11.8988 7.02814C11.8317 6.86638 11.7334 6.71945 11.6095 6.59573L6.27612 1.26239C6.1524 1.13847 6.00546 1.04015 5.84371 0.973069C5.68196 0.905988 5.50856 0.87146 5.33345 0.87146C5.15834 0.87146 4.98495 0.905988 4.82319 0.973069C4.66144 1.04015 4.5145 1.13847 4.39079 1.26239L0.774786 4.87839C0.26812 5.38506 -0.0172139 6.08106 -0.00654721 6.79173C0.0241195 8.69039 0.526786 15.2851 5.72412 20.4824C10.9215 25.6797 17.5161 26.1811 19.4161 26.2131H19.4535C20.1575 26.2131 20.8228 25.9357 21.3268 25.4317L24.9428 21.8157C25.0667 21.692 25.165 21.5451 25.2321 21.3833C25.2992 21.2216 25.3337 21.0482 25.3337 20.8731C25.3337 20.6979 25.2992 20.5246 25.2321 20.3628C25.165 20.201 25.0667 20.0541 24.9428 19.9304L19.6095 14.5957ZM19.4401 23.5451C17.7761 23.5171 12.0828 23.0704 7.60945 18.5957C3.12145 14.1077 2.68679 8.39439 2.66012 6.76373L5.33345 4.09039L8.78145 7.53839L7.05745 9.26239C6.90073 9.41899 6.78551 9.61218 6.72219 9.82448C6.65887 10.0368 6.64945 10.2615 6.69479 10.4784C6.72679 10.6317 7.50945 14.2677 9.72278 16.4811C11.9361 18.6944 15.5721 19.4771 15.7255 19.5091C15.9422 19.5557 16.1672 19.547 16.3796 19.4839C16.5921 19.4207 16.7853 19.3051 16.9415 19.1477L18.6668 17.4237L22.1148 20.8717L19.4401 23.5451Z" fill="#0F86D9"/>
</svg>
