<svg width="81" height="81" viewBox="0 0 81 81" fill="none" xmlns="http://www.w3.org/2000/svg">
<path d="M40.7013 70.7344H39.808C36.8517 70.7344 34.4553 68.338 34.4553 65.3817C34.4553 63.7124 33.6763 62.1384 32.3487 61.1257L28.8918 58.4894C26.933 56.9954 24.2748 56.8054 22.1234 58.0054L22.0056 58.071C19.1487 59.6644 15.5427 58.6987 13.8645 55.8907C12.1138 52.9614 13.1306 49.1644 16.111 47.502L16.2643 47.4167C18.2341 46.318 19.455 44.239 19.455 41.9837V39.4867C19.455 37.2314 18.2341 35.1524 16.2642 34.0537L16.111 33.9682C13.1306 32.3059 12.1138 28.5091 13.8645 25.5797C15.5427 22.7718 19.1487 21.806 22.0056 23.3994L22.4585 23.652C24.4524 24.7641 26.88 24.764 28.8738 23.6519L31.2874 22.3057C33.2432 21.2148 34.4553 19.1508 34.4553 16.9113C34.4553 13.4999 37.255 10.7344 40.6663 10.7344C44.0777 10.7344 46.8773 13.4998 46.8773 16.9112C46.8773 19.1506 48.0893 21.2147 50.0453 22.3056L52.4587 23.6518C54.4523 24.7639 56.88 24.7639 58.8737 23.6519L59.3267 23.3994C62.1833 21.806 65.7893 22.7718 67.4677 25.5797C69.2183 28.5091 68.2017 32.3059 65.221 33.9682L65.0677 34.0537C63.098 35.1524 61.877 37.2314 61.877 39.4867V41.9837C61.877 44.239 63.098 46.318 65.0677 47.4167L65.221 47.5024C68.2017 49.1644 69.2183 52.9614 67.4677 55.8907C65.7893 58.6987 62.1833 59.6644 59.3267 58.071L58.8737 57.8184C56.88 56.7064 54.4527 56.7064 52.4587 57.8184L50.0453 59.1644C48.0897 60.255 46.8773 62.319 46.8773 64.5584C46.8773 67.9694 44.1123 70.7344 40.7013 70.7344Z" stroke="#0F86D9" stroke-width="4" stroke-linecap="round"/>
<path d="M50.6668 40.7344C50.6668 46.257 46.1895 50.7344 40.6665 50.7344C35.1438 50.7344 30.6667 46.257 30.6667 40.7344C30.6667 35.2114 35.1438 30.7344 40.6665 30.7344C46.1895 30.7344 50.6668 35.2114 50.6668 40.7344Z" stroke="#0F86D9" stroke-width="4" stroke-linecap="round"/>
</svg>
