<svg width="75" height="76" viewBox="0 0 75 76" fill="none" xmlns="http://www.w3.org/2000/svg">
<path d="M70.8775 34.1165C73.9488 31.8868 72.369 27.0358 68.5715 27.0358H53.6531C50.2308 27.0358 47.2038 24.8202 46.1741 21.5617L41.2394 5.94213C40.0867 2.29273 34.9136 2.29273 33.7604 5.94213L28.8259 21.5617C27.7965 24.8202 24.7694 27.0358 21.347 27.0358H6.42858C2.63092 27.0358 1.05109 31.8868 4.12265 34.1165L17.4094 43.7615C20.2808 45.8456 21.3913 49.5961 20.1169 52.9039L14.3529 67.8649C12.9506 71.505 17.1597 74.7298 20.3189 72.4359L32.8876 63.3103C35.6374 61.3135 39.3628 61.3135 42.1127 63.3103L54.6812 72.4359C57.8404 74.7298 62.0496 71.505 60.6471 67.8649L54.8831 52.9039C53.6088 49.5961 54.7192 45.8456 57.5906 43.7615L70.8775 34.1165Z" stroke="#0F86D9" stroke-width="4.70526" stroke-linecap="round"/>
</svg>
